<svg xmlns="http://www.w3.org/2000/svg" width="1180" height="900" viewBox="0 0 1180 900"><rect width="1180" height="900" fill="#ffffff"/><rect x="70.0" y="70.0" width="198.0" height="198.0" rx="0" fill="#f1f5f9" stroke="none" stroke-width="1" opacity="1"/><rect x="70.0" y="268.0" width="198.0" height="176.0" rx="0" fill="#e0f2fe" stroke="none" stroke-width="1" opacity="1"/><rect x="70.0" y="444.0" width="198.0" height="154.0" rx="0" fill="#f8fafc" stroke="none" stroke-width="1" opacity="1"/><rect x="268.0" y="70.0" width="330.0" height="154.0" rx="0" fill="#fef3c7" stroke="none" stroke-width="1" opacity="1"/><rect x="598.0" y="70.0" width="220.0" height="154.0" rx="0" fill="#fdf4ff" stroke="none" stroke-width="1" opacity="1"/><rect x="268.0" y="224.0" width="286.0" height="374.0" rx="0" fill="#eef2ff" stroke="none" stroke-width="1" opacity="1"/><rect x="554.0" y="224.0" width="264.0" height="374.0" rx="0" fill="#ecfeff" stroke="none" stroke-width="1" opacity="1"/><line x1="268.0" y1="70.0" x2="268.0" y2="598.0" stroke="#94a3b8" stroke-width="0.3" stroke-linecap="butt"/><line x1="312.0" y1="70.0" x2="312.0" y2="598.0" stroke="#94a3b8" stroke-width="0.3" stroke-linecap="butt"/><line x1="356.0" y1="70.0" x2="356.0" y2="598.0" stroke="#94a3b8" stroke-width="0.3" stroke-linecap="butt"/><line x1="400.0" y1="70.0" x2="400.0" y2="598.0" stroke="#94a3b8" stroke-width="0.3" stroke-linecap="butt"/><line x1="444.0" y1="70.0" x2="444.0" y2="598.0" stroke="#94a3b8" stroke-width="0.3" stroke-linecap="butt"/><line x1="488.0" y1="70.0" x2="488.0" y2="598.0" stroke="#94a3b8" stroke-width="0.3" stroke-linecap="butt"/><line x1="532.0" y1="70.0" x2="532.0" y2="598.0" stroke="#94a3b8" stroke-width="0.3" stroke-linecap="butt"/><line x1="576.0" y1="70.0" x2="576.0" y2="598.0" stroke="#94a3b8" stroke-width="0.3" stroke-linecap="butt"/><line x1="620.0" y1="70.0" x2="620.0" y2="598.0" stroke="#94a3b8" stroke-width="0.3" stroke-linecap="butt"/><line x1="664.0" y1="70.0" x2="664.0" y2="598.0" stroke="#94a3b8" stroke-width="0.3" stroke-linecap="butt"/><line x1="708.0" y1="70.0" x2="708.0" y2="598.0" stroke="#94a3b8" stroke-width="0.3" stroke-linecap="butt"/><line x1="752.0" y1="70.0" x2="752.0" y2="598.0" stroke="#94a3b8" stroke-width="0.3" stroke-linecap="butt"/><line x1="796.0" y1="70.0" x2="796.0" y2="598.0" stroke="#94a3b8" stroke-width="0.3" stroke-linecap="butt"/><rect x="70.0" y="70.0" width="748.0" height="528.0" rx="0" fill="none" stroke="#1f2937" stroke-width="6" opacity="1"/><line x1="268.0" y1="70.0" x2="268.0" y2="444.0" stroke="#1f2937" stroke-width="4" stroke-linecap="butt"/><line x1="70.0" y1="268.0" x2="268.0" y2="268.0" stroke="#1f2937" stroke-width="4" stroke-linecap="butt"/><line x1="70.0" y1="444.0" x2="268.0" y2="444.0" stroke="#1f2937" stroke-width="4" stroke-linecap="butt"/><line x1="268.0" y1="224.0" x2="268.0" y2="224.0" stroke="#1f2937" stroke-width="0" stroke-linecap="butt"/><line x1="268.0" y1="103.0" x2="268.0" y2="158.0" stroke="#ffffff" stroke-width="6" stroke-linecap="butt"/><line x1="268.0" y1="158.0" x2="268.0" y2="213.0" stroke="#475569" stroke-width="1.5" stroke-linecap="butt"/><path d="M 268.0 213.0 A 55.0 55.0 0 0 1 213.0 158.0" fill="none" stroke="#64748b" stroke-width="0.8" stroke-dasharray="3 3"/><line x1="268.0" y1="345.0" x2="268.0" y2="400.0" stroke="#ffffff" stroke-width="6" stroke-linecap="butt"/><line x1="268.0" y1="345.0" x2="323.0" y2="345.0" stroke="#475569" stroke-width="1.5" stroke-linecap="butt"/><path d="M 323.0 345.0 A 55.0 55.0 0 0 1 268.0 290.0" fill="none" stroke="#64748b" stroke-width="0.8" stroke-dasharray="3 3"/><line x1="114.0" y1="598.0" x2="180.0" y2="598.0" stroke="#ffffff" stroke-width="6" stroke-linecap="butt"/><line x1="114.0" y1="598.0" x2="180.0" y2="598.0" stroke="#475569" stroke-width="1.5" stroke-linecap="butt"/><path d="M 180.0 598.0 A 66.0 66.0 0 0 1 114.0 532.0" fill="none" stroke="#64748b" stroke-width="0.8" stroke-dasharray="3 3"/><line x1="818.0" y1="92.0" x2="818.0" y2="312.0" stroke="#ffffff" stroke-width="6" stroke-linecap="butt"/><line x1="818.0" y1="92.0" x2="818.0" y2="312.0" stroke="#0ea5e9" stroke-width="2" stroke-linecap="butt"/><line x1="818.0" y1="356.0" x2="818.0" y2="554.0" stroke="#ffffff" stroke-width="6" stroke-linecap="butt"/><line x1="818.0" y1="356.0" x2="818.0" y2="554.0" stroke="#0ea5e9" stroke-width="2" stroke-linecap="butt"/><line x1="642.0" y1="598.0" x2="796.0" y2="598.0" stroke="#ffffff" stroke-width="6" stroke-linecap="butt"/><line x1="642.0" y1="598.0" x2="796.0" y2="598.0" stroke="#0ea5e9" stroke-width="2" stroke-linecap="butt"/><line x1="356.0" y1="70.0" x2="554.0" y2="70.0" stroke="#ffffff" stroke-width="6" stroke-linecap="butt"/><line x1="356.0" y1="70.0" x2="554.0" y2="70.0" stroke="#0ea5e9" stroke-width="2" stroke-linecap="butt"/><rect x="92.0" y="206.4" width="48.4" height="48.4" rx="2" fill="#ffffff" stroke="#475569" stroke-width="1" opacity="1"/><circle cx="116.2" cy="230.6" r="15.4" fill="#f8fafc" stroke="#475569" stroke-width="1"/><rect x="149.2" y="206.4" width="48.4" height="48.4" rx="2" fill="#ffffff" stroke="#475569" stroke-width="1" opacity="1"/><circle cx="173.4" cy="230.6" r="15.4" fill="#f8fafc" stroke="#475569" stroke-width="1"/><rect x="83.2" y="81.0" width="171.6" height="24.2" rx="0" fill="#e2e8f0" stroke="#475569" stroke-width="1" opacity="1"/><line x1="114.0" y1="81.0" x2="114.0" y2="105.2" stroke="#475569" stroke-width="0.6" stroke-linecap="butt"/><line x1="158.0" y1="81.0" x2="158.0" y2="105.2" stroke="#475569" stroke-width="0.6" stroke-linecap="butt"/><line x1="202.0" y1="81.0" x2="202.0" y2="105.2" stroke="#475569" stroke-width="0.6" stroke-linecap="butt"/><circle cx="239.4" cy="232.8" r="7.7" fill="#ef4444" stroke="#b91c1c" stroke-width="1"/><rect x="81.0" y="364.8" width="77.0" height="68.2" rx="0" fill="#dbeafe" stroke="#38bdf8" stroke-width="1.2" opacity="1" stroke-dasharray="4 3"/><line x1="81.0" y1="364.8" x2="158.0" y2="433.0" stroke="#7dd3fc" stroke-width="0.8" stroke-linecap="butt"/><rect x="202.0" y="400.0" width="26.4" height="30.8" rx="1" fill="#ffffff" stroke="#475569" stroke-width="1" opacity="1"/><ellipse cx="215.2" cy="386.8" rx="15.4" ry="19.8" fill="#ffffff" stroke="#475569" stroke-width="1"/><rect x="171.2" y="276.8" width="83.6" height="30.8" rx="0" fill="#e2e8f0" stroke="#475569" stroke-width="1" opacity="1"/><ellipse cx="213.0" cy="292.2" rx="13.2" ry="8.8" fill="#ffffff" stroke="#475569" stroke-width="1"/><rect x="193.2" y="558.4" width="61.6" height="26.4" rx="2" fill="#e2e8f0" stroke="#475569" stroke-width="1" opacity="1"/><rect x="276.8" y="81.0" width="299.2" height="37.4" rx="0" fill="#e2e8f0" stroke="#475569" stroke-width="1" opacity="1"/><circle cx="356.0" cy="99.7" r="12.1" fill="#ffffff" stroke="#475569" stroke-width="1"/><circle cx="466.0" cy="99.7" r="7.7" fill="#ffffff" stroke="#475569" stroke-width="1"/><circle cx="492.4" cy="99.7" r="7.7" fill="#ffffff" stroke="#475569" stroke-width="1"/><rect x="334.0" y="162.4" width="110.0" height="30.8" rx="2" fill="#ffffff" stroke="#475569" stroke-width="1" opacity="1"/><text x="389.0" y="181.1" font-family="Geist, Inter, Arial, sans-serif" font-size="9" fill="#64748b" text-anchor="middle" font-weight="400" letter-spacing="0">island</text><rect x="653.0" y="127.2" width="110.0" height="52.8" rx="3" fill="#ffffff" stroke="#475569" stroke-width="1" opacity="1"/><circle cx="637.6" cy="122.8" r="9.9" fill="#e2e8f0" stroke="#475569" stroke-width="1"/><circle cx="637.6" cy="153.6" r="9.9" fill="#e2e8f0" stroke="#475569" stroke-width="1"/><circle cx="637.6" cy="184.4" r="9.9" fill="#e2e8f0" stroke="#475569" stroke-width="1"/><circle cx="778.4" cy="122.8" r="9.9" fill="#e2e8f0" stroke="#475569" stroke-width="1"/><circle cx="778.4" cy="153.6" r="9.9" fill="#e2e8f0" stroke="#475569" stroke-width="1"/><circle cx="778.4" cy="184.4" r="9.9" fill="#e2e8f0" stroke="#475569" stroke-width="1"/><rect x="281.2" y="433.0" width="39.6" height="143.0" rx="3" fill="#e2e8f0" stroke="#475569" stroke-width="1" opacity="1"/><rect x="320.8" y="540.8" width="112.2" height="39.6" rx="3" fill="#e2e8f0" stroke="#475569" stroke-width="1" opacity="1"/><text x="362.6" y="501.2" font-family="Geist, Inter, Arial, sans-serif" font-size="9" fill="#64748b" text-anchor="middle" font-weight="400" letter-spacing="0">lounge</text><rect x="356.0" y="466.0" width="66.0" height="26.4" rx="2" fill="#ffffff" stroke="#475569" stroke-width="1" opacity="1"/><rect x="477.0" y="257.0" width="46.2" height="81.4" rx="2" fill="#ffffff" stroke="#475569" stroke-width="1" opacity="1"/><line x1="481.4" y1="274.6" x2="518.8" y2="274.6" stroke="#475569" stroke-width="0.5" stroke-linecap="butt"/><line x1="481.4" y1="296.6" x2="518.8" y2="296.6" stroke="#475569" stroke-width="0.5" stroke-linecap="butt"/><line x1="481.4" y1="318.6" x2="518.8" y2="318.6" stroke="#475569" stroke-width="0.5" stroke-linecap="butt"/><text x="499.0" y="356.0" font-family="Geist, Inter, Arial, sans-serif" font-size="8.5" fill="#64748b" text-anchor="middle" font-weight="400" letter-spacing="0">treadmill</text><circle cx="303.2" cy="268.0" r="15.4" fill="none" stroke="#475569" stroke-width="1.2"/><circle cx="342.8" cy="268.0" r="15.4" fill="none" stroke="#475569" stroke-width="1.2"/><line x1="303.2" y1="268.0" x2="327.4" y2="250.4" stroke="#475569" stroke-width="1" stroke-linecap="butt"/><line x1="327.4" y1="250.4" x2="342.8" y2="268.0" stroke="#475569" stroke-width="1" stroke-linecap="butt"/><line x1="327.4" y1="250.4" x2="323.0" y2="268.0" stroke="#475569" stroke-width="1" stroke-linecap="butt"/><circle cx="411.0" cy="254.8" r="13.2" fill="#bbf7d0" stroke="#16a34a" stroke-width="1"/><circle cx="439.6" cy="290.0" r="13.2" fill="#bbf7d0" stroke="#16a34a" stroke-width="1"/><circle cx="287.8" cy="389.0" r="13.2" fill="#bbf7d0" stroke="#16a34a" stroke-width="1"/><polygon points="302.7,506.5 302.7,513.5 296.6,517.0 290.5,513.5 290.5,506.5 296.6,503.0" fill="#ec4899" fill-opacity="0.55" stroke="#ec4899" stroke-width="0.8"/><polygon points="315.5,499.2 315.5,506.3 309.4,509.8 303.3,506.3 303.3,499.2 309.4,495.7" fill="#ec4899" fill-opacity="0.55" stroke="#ec4899" stroke-width="0.8"/><polygon points="315.5,513.7 315.5,520.8 309.4,524.3 303.3,520.8 303.3,513.7 309.4,510.2" fill="#ec4899" fill-opacity="0.55" stroke="#ec4899" stroke-width="0.8"/><polygon points="289.9,513.7 289.9,520.8 283.8,524.3 277.7,520.8 277.7,513.7 283.8,510.2" fill="#ec4899" fill-opacity="0.55" stroke="#ec4899" stroke-width="0.8"/><polygon points="302.7,492.0 302.7,499.0 296.6,502.5 290.5,499.0 290.5,492.0 296.6,488.4" fill="#ec4899" fill-opacity="0.55" stroke="#ec4899" stroke-width="0.8"/><polygon points="315.5,528.3 315.5,535.3 309.4,538.8 303.3,535.3 303.3,528.3 309.4,524.7" fill="#ec4899" fill-opacity="0.55" stroke="#ec4899" stroke-width="0.8"/><polygon points="289.9,499.2 289.9,506.3 283.8,509.8 277.7,506.3 277.7,499.2 283.8,495.7" fill="#ec4899" fill-opacity="0.55" stroke="#ec4899" stroke-width="0.8"/><rect x="752.0" y="356.0" width="52.8" height="176.0" rx="0" fill="#e2e8f0" stroke="#475569" stroke-width="1" opacity="1"/><rect x="699.2" y="483.6" width="105.6" height="48.4" rx="0" fill="#e2e8f0" stroke="#475569" stroke-width="1" opacity="1"/><rect x="765.2" y="378.0" width="8.8" height="44.0" rx="0" fill="#0f172a" stroke="#475569" stroke-width="0.8" opacity="1"/><rect x="765.2" y="430.8" width="8.8" height="44.0" rx="0" fill="#0f172a" stroke="#475569" stroke-width="0.8" opacity="1"/><circle cx="725.6" cy="422.0" r="17.6" fill="#ffffff" stroke="#475569" stroke-width="1.2"/><rect x="576.0" y="545.2" width="132.0" height="39.6" rx="0" fill="#e2e8f0" stroke="#475569" stroke-width="1" opacity="1"/><line x1="620.0" y1="545.2" x2="620.0" y2="584.8" stroke="#475569" stroke-width="0.7" stroke-linecap="butt"/><line x1="664.0" y1="545.2" x2="664.0" y2="584.8" stroke="#475569" stroke-width="0.7" stroke-linecap="butt"/><line x1="576.0" y1="565.0" x2="708.0" y2="565.0" stroke="#475569" stroke-width="0.7" stroke-linecap="butt"/><text x="642.0" y="598.0" font-family="Geist, Inter, Arial, sans-serif" font-size="8.5" fill="#64748b" text-anchor="middle" font-weight="400" letter-spacing="0">shelving</text><circle cx="694.8" cy="386.8" r="12.1" fill="none" stroke="#f59e0b" stroke-width="1.5"/><polygon points="595.3,264.5 595.3,271.5 589.2,275.0 583.1,271.5 583.1,264.5 589.2,261.0" fill="#38bdf8" fill-opacity="0.55" stroke="#38bdf8" stroke-width="0.8"/><polygon points="608.1,257.2 608.1,264.3 602.0,267.8 595.9,264.3 595.9,257.2 602.0,253.7" fill="#38bdf8" fill-opacity="0.55" stroke="#38bdf8" stroke-width="0.8"/><polygon points="608.1,271.7 608.1,278.8 602.0,282.3 595.9,278.8 595.9,271.7 602.0,268.2" fill="#38bdf8" fill-opacity="0.55" stroke="#38bdf8" stroke-width="0.8"/><polygon points="582.5,271.7 582.5,278.8 576.4,282.3 570.3,278.8 570.3,271.7 576.4,268.2" fill="#38bdf8" fill-opacity="0.55" stroke="#38bdf8" stroke-width="0.8"/><polygon points="595.3,250.0 595.3,257.0 589.2,260.5 583.1,257.0 583.1,250.0 589.2,246.4" fill="#38bdf8" fill-opacity="0.55" stroke="#38bdf8" stroke-width="0.8"/><polygon points="608.1,286.3 608.1,293.3 602.0,296.8 595.9,293.3 595.9,286.3 602.0,282.7" fill="#38bdf8" fill-opacity="0.55" stroke="#38bdf8" stroke-width="0.8"/><polygon points="582.5,257.2 582.5,264.3 576.4,267.8 570.3,264.3 570.3,257.2 576.4,253.7" fill="#38bdf8" fill-opacity="0.55" stroke="#38bdf8" stroke-width="0.8"/><text x="169.0" y="166.8" font-family="Geist, Inter, Arial, sans-serif" font-size="12" fill="#0f172a" text-anchor="middle" font-weight="600" letter-spacing="0.3">LAUNDRY / UTILITY</text><text x="169.0" y="187.7" font-family="Geist, Inter, Arial, sans-serif" font-size="10.5" fill="#64748b" text-anchor="middle" font-weight="400" letter-spacing="0">~81 sq ft</text><text x="169.0" y="329.6" font-family="Geist, Inter, Arial, sans-serif" font-size="12" fill="#0f172a" text-anchor="middle" font-weight="600" letter-spacing="0.3">BATHROOM</text><text x="169.0" y="350.5" font-family="Geist, Inter, Arial, sans-serif" font-size="10.5" fill="#64748b" text-anchor="middle" font-weight="400" letter-spacing="0">~72 sq ft</text><text x="169.0" y="510.0" font-family="Geist, Inter, Arial, sans-serif" font-size="12" fill="#0f172a" text-anchor="middle" font-weight="600" letter-spacing="0.3">ENTRY</text><text x="169.0" y="530.9" font-family="Geist, Inter, Arial, sans-serif" font-size="10.5" fill="#64748b" text-anchor="middle" font-weight="400" letter-spacing="0">~63 sq ft</text><text x="433.0" y="144.8" font-family="Geist, Inter, Arial, sans-serif" font-size="13" fill="#0f172a" text-anchor="middle" font-weight="600" letter-spacing="0.3">KITCHEN</text><text x="433.0" y="165.7" font-family="Geist, Inter, Arial, sans-serif" font-size="10.5" fill="#64748b" text-anchor="middle" font-weight="400" letter-spacing="0">~105 sq ft</text><text x="708.0" y="107.4" font-family="Geist, Inter, Arial, sans-serif" font-size="12" fill="#0f172a" text-anchor="middle" font-weight="600" letter-spacing="0.3">DINING</text><text x="708.0" y="128.3" font-family="Geist, Inter, Arial, sans-serif" font-size="10.5" fill="#64748b" text-anchor="middle" font-weight="400" letter-spacing="0">~70 sq ft</text><text x="389.0" y="356.0" font-family="Geist, Inter, Arial, sans-serif" font-size="16" fill="#0f172a" text-anchor="middle" font-weight="600" letter-spacing="0.3">LIVING</text><text x="389.0" y="376.9" font-family="Geist, Inter, Arial, sans-serif" font-size="10.5" fill="#64748b" text-anchor="middle" font-weight="400" letter-spacing="0">open · double-height</text><text x="664.0" y="312.0" font-family="Geist, Inter, Arial, sans-serif" font-size="13" fill="#0f172a" text-anchor="middle" font-weight="600" letter-spacing="0.3">HOME OFFICE / STUDIO</text><text x="664.0" y="332.9" font-family="Geist, Inter, Arial, sans-serif" font-size="10.5" fill="#64748b" text-anchor="middle" font-weight="400" letter-spacing="0">~120 sq ft</text><line x1="70.0" y1="48.0" x2="818.0" y2="48.0" stroke="#64748b" stroke-width="0.8" stroke-linecap="butt"/><line x1="70.0" y1="42.5" x2="70.0" y2="53.5" stroke="#64748b" stroke-width="0.8" stroke-linecap="butt"/><line x1="818.0" y1="42.5" x2="818.0" y2="53.5" stroke="#64748b" stroke-width="0.8" stroke-linecap="butt"/><text x="444.0" y="39.2" font-family="Geist, Inter, Arial, sans-serif" font-size="10" fill="#64748b" text-anchor="middle" font-weight="400" letter-spacing="0">34′ – 0″  (overall)</text><line x1="43.6" y1="70.0" x2="43.6" y2="598.0" stroke="#64748b" stroke-width="0.8" stroke-linecap="butt"/><line x1="38.1" y1="70.0" x2="49.1" y2="70.0" stroke="#64748b" stroke-width="0.8" stroke-linecap="butt"/><line x1="38.1" y1="598.0" x2="49.1" y2="598.0" stroke="#64748b" stroke-width="0.8" stroke-linecap="butt"/><text x="37.6" y="334.0" font-family="Geist, Inter, Arial, sans-serif" font-size="10" fill="#64748b" text-anchor="middle" transform="rotate(-90 37.6 334.0)">24′ – 0″  (overall)</text><rect x="858" y="76" width="270" height="522" rx="10" fill="#f8fafc" stroke="#e2e8f0" stroke-width="1"/><text x="876.0" y="110.0" font-family="Geist, Inter, Arial, sans-serif" font-size="22" fill="#0f172a" text-anchor="start" font-weight="700" letter-spacing="0.5">ROOM PLAN</text><text x="876.0" y="132.0" font-family="Geist, Inter, Arial, sans-serif" font-size="12" fill="#64748b" text-anchor="start" font-weight="400" letter-spacing="0">As-observed loft layout</text><text x="876.0" y="148.0" font-family="Geist, Inter, Arial, sans-serif" font-size="11" fill="#64748b" text-anchor="start" font-weight="400" letter-spacing="0">Reconstructed from 5 site photos</text><text x="876.0" y="176.0" font-family="Geist, Inter, Arial, sans-serif" font-size="10.5" fill="#64748b" text-anchor="start" font-weight="500" letter-spacing="0">Drawing</text><text x="962.0" y="176.0" font-family="Geist, Inter, Arial, sans-serif" font-size="10.5" fill="#0f172a" text-anchor="start" font-weight="500" letter-spacing="0">Floor plan, level 1</text><text x="876.0" y="196.0" font-family="Geist, Inter, Arial, sans-serif" font-size="10.5" fill="#64748b" text-anchor="start" font-weight="500" letter-spacing="0">Project</text><text x="962.0" y="196.0" font-family="Geist, Inter, Arial, sans-serif" font-size="10.5" fill="#0f172a" text-anchor="start" font-weight="500" letter-spacing="0">PermitOps — demo</text><text x="876.0" y="216.0" font-family="Geist, Inter, Arial, sans-serif" font-size="10.5" fill="#64748b" text-anchor="start" font-weight="500" letter-spacing="0">Date</text><text x="962.0" y="216.0" font-family="Geist, Inter, Arial, sans-serif" font-size="10.5" fill="#0f172a" text-anchor="start" font-weight="500" letter-spacing="0">2026-06-16</text><text x="876.0" y="236.0" font-family="Geist, Inter, Arial, sans-serif" font-size="10.5" fill="#64748b" text-anchor="start" font-weight="500" letter-spacing="0">Scale</text><text x="962.0" y="236.0" font-family="Geist, Inter, Arial, sans-serif" font-size="10.5" fill="#0f172a" text-anchor="start" font-weight="500" letter-spacing="0">approx. 1/4″ = 1′</text><text x="876.0" y="256.0" font-family="Geist, Inter, Arial, sans-serif" font-size="10.5" fill="#64748b" text-anchor="start" font-weight="500" letter-spacing="0">Total area</text><text x="962.0" y="256.0" font-family="Geist, Inter, Arial, sans-serif" font-size="10.5" fill="#0f172a" text-anchor="start" font-weight="500" letter-spacing="0">~580 sq ft (interior)</text><text x="876.0" y="276.0" font-family="Geist, Inter, Arial, sans-serif" font-size="10.5" fill="#64748b" text-anchor="start" font-weight="500" letter-spacing="0">Source</text><text x="962.0" y="276.0" font-family="Geist, Inter, Arial, sans-serif" font-size="10.5" fill="#0f172a" text-anchor="start" font-weight="500" letter-spacing="0">IMG_6465–6470</text><text x="876.0" y="310.0" font-family="Geist, Inter, Arial, sans-serif" font-size="11" fill="#0f172a" text-anchor="start" font-weight="700" letter-spacing="0.5">LEGEND</text><rect x="876.0" y="320.0" width="20" height="6" fill="#1f2937"/><text x="906.0" y="332.0" font-family="Geist, Inter, Arial, sans-serif" font-size="10.5" fill="#0f172a" text-anchor="start" font-weight="400" letter-spacing="0">Wall</text><rect x="876.0" y="344.0" width="20" height="3" fill="#0ea5e9"/><text x="906.0" y="354.0" font-family="Geist, Inter, Arial, sans-serif" font-size="10.5" fill="#0f172a" text-anchor="start" font-weight="400" letter-spacing="0">Window / glazing</text><path d="M 876.0 372.0 a 16 16 0 0 1 16 -16" fill="none" stroke="#64748b" stroke-width="0.8" stroke-dasharray="3 3"/><line x1="876.0" y1="372.0" x2="876.0" y2="356.0" stroke="#475569" stroke-width="1.5"/><text x="906.0" y="376.0" font-family="Geist, Inter, Arial, sans-serif" font-size="10.5" fill="#0f172a" text-anchor="start" font-weight="400" letter-spacing="0">Door swing</text><polygon points="876.0,385.0 881.0,382.0 886.0,385.0 886.0,391.0 881.0,394.0 876.0,391.0" fill="#ec4899" fill-opacity="0.55" stroke="#ec4899" stroke-width="0.8"/><text x="906.0" y="398.0" font-family="Geist, Inter, Arial, sans-serif" font-size="10.5" fill="#0f172a" text-anchor="start" font-weight="400" letter-spacing="0">Nanoleaf hex (living — pink)</text><polygon points="876.0,407.0 881.0,404.0 886.0,407.0 886.0,413.0 881.0,416.0 876.0,413.0" fill="#38bdf8" fill-opacity="0.55" stroke="#38bdf8" stroke-width="0.8"/><text x="906.0" y="420.0" font-family="Geist, Inter, Arial, sans-serif" font-size="10.5" fill="#0f172a" text-anchor="start" font-weight="400" letter-spacing="0">Nanoleaf hex (office — white)</text><circle cx="1073.0" cy="552.0" r="26" fill="#ffffff" stroke="#e2e8f0"/><polygon points="1073.0,532.0 1065.0,558.0 1073.0,552.0 1081.0,558.0" fill="#1f2937"/><text x="1073.0" y="574.0" font-family="Geist, Inter, Arial, sans-serif" font-size="12" fill="#0f172a" text-anchor="middle" font-weight="700">N</text><text x="70.0" y="878.0" font-family="Geist, Inter, Arial, sans-serif" font-size="11" fill="#64748b" text-anchor="start" font-weight="400" letter-spacing="0">Not to scale · dimensions and room areas are visual estimates from photographs, not a measured survey.</text></svg>